<svg width="24" height="24" viewBox="0 0 24 24" fill="none" xmlns="http://www.w3.org/2000/svg">
<g clip-path="url(#clip0_159_32)">
<path d="M3.30324 21.2915C3.71339 21.69 4.39308 21.69 4.79152 21.2915L12.2915 13.7915L19.7915 21.2915C20.19 21.69 20.8814 21.7017 21.2798 21.2915C21.6782 20.8814 21.6782 20.2134 21.2798 19.815L13.7798 12.3032L21.2798 4.80324C21.6782 4.4048 21.69 3.72511 21.2798 3.32668C20.8696 2.91652 20.19 2.91652 19.7915 3.32668L12.2915 10.8267L4.79152 3.32668C4.39308 2.91652 3.70168 2.9048 3.30324 3.32668C2.9048 3.73683 2.9048 4.4048 3.30324 4.80324L10.8032 12.3032L3.30324 19.815C2.9048 20.2134 2.89308 20.8931 3.30324 21.2915Z" fill="black" fill-opacity="0.85"/>
</g>
<defs>
<clipPath id="clip0_159_32">
<rect width="18.583" height="18.5948" fill="white" transform="translate(3 3)"/>
</clipPath>
</defs>
</svg>
