<svg width="28" height="28" viewBox="0 0 28 28" fill="none" xmlns="http://www.w3.org/2000/svg">
<path fill-rule="evenodd" clip-rule="evenodd" d="M4.59246 3.10759C4.1824 2.69754 3.51758 2.69754 3.10752 3.10759C2.69748 3.51763 2.69748 4.18246 3.10752 4.59251L23.4075 24.8925C23.8176 25.3026 24.4824 25.3026 24.8925 24.8925C25.3025 24.4824 25.3025 23.8176 24.8925 23.4075L22.4492 20.9643C24.509 19.4032 26.1233 17.2851 27.0681 14.8343C27.274 14.3002 27.2742 13.7078 27.0685 13.1736C25.0488 7.92475 19.9584 4.20004 13.998 4.20004C11.5949 4.20004 9.33318 4.80553 7.35713 5.87226L4.59246 3.10759ZM10.8527 9.36782L12.3811 10.8963C12.8653 10.6432 13.4161 10.5 14.0002 10.5C15.9333 10.5 17.5002 12.0671 17.5002 14C17.5002 14.5843 17.3571 15.135 17.104 15.6191L18.6327 17.1478C19.2435 16.2508 19.6005 15.1671 19.6005 14C19.6005 10.9073 17.0933 8.40004 14.0005 8.40004C12.8334 8.40004 11.7497 8.75706 10.8527 9.36782Z" fill="black"/>
<path d="M15.0478 19.5023L18.5795 23.0341C17.1447 23.5304 15.6042 23.8 14.0005 23.8C8.04016 23.8 2.94976 20.0753 0.929957 14.8266C0.724348 14.2923 0.724526 13.7 0.930454 13.1657C1.61845 11.3811 2.66152 9.77285 3.97307 8.42761L8.49827 12.9528C8.4341 13.2921 8.40052 13.6421 8.40052 14C8.40052 17.0929 10.9077 19.6 14.0005 19.6C14.3584 19.6 14.7085 19.5664 15.0478 19.5023Z" fill="black"/>
</svg>
