<svg width="24" height="24" viewBox="0 0 24 24" fill="none" xmlns="http://www.w3.org/2000/svg">
<g clip-path="url(#clip0_159_20)">
<path d="M17.4609 12.1719C17.4609 11.8789 17.3438 11.6094 17.1211 11.3984L7.83984 2.30469C7.62891 2.10547 7.37109 2 7.06641 2C6.46875 2 6 2.45703 6 3.06641C6 3.35938 6.11719 3.62891 6.30469 3.82812L14.8359 12.1719L6.30469 20.5156C6.11719 20.7148 6 20.9727 6 21.2773C6 21.8867 6.46875 22.3438 7.06641 22.3438C7.37109 22.3438 7.62891 22.2383 7.83984 22.0273L17.1211 12.9453C17.3438 12.7227 17.4609 12.4648 17.4609 12.1719Z" fill="black" fill-opacity="0.85"/>
</g>
<defs>
<clipPath id="clip0_159_20">
<rect width="11.4609" height="20.3555" fill="white" transform="translate(6 2)"/>
</clipPath>
</defs>
</svg>
