<svg width="28" height="28" viewBox="0 0 28 28" fill="none" xmlns="http://www.w3.org/2000/svg">
<rect y="24" width="28" height="2" rx="1" fill="black" fill-opacity="0.85"/>
<path fill-rule="evenodd" clip-rule="evenodd" d="M5.19593 22H22.8041C24.9415 22 26 20.9266 26 18.8006V6.19934C26 4.07333 24.9415 3 22.8041 3H5.19593C3.0687 3 2 4.06301 2 6.19934V18.8006C2 20.9369 3.0687 22 5.19593 22ZM10.0713 19.5437C9.79644 19.5437 9.59288 19.7397 9.59288 20.0185C9.59288 20.2971 9.79644 20.4932 10.0713 20.4932H17.939C18.2138 20.4932 18.4071 20.2971 18.4071 20.0185C18.4071 19.7397 18.2138 19.5437 17.939 19.5437H10.0713Z" fill="black" fill-opacity="0.85"/>
</svg>
