<svg width="24" height="24" viewBox="0 0 24 24" fill="none" xmlns="http://www.w3.org/2000/svg">
<path fill-rule="evenodd" clip-rule="evenodd" d="M5.33334 10.3334C3.49239 10.3334 2 11.8258 2 13.6667V18.6667C2 20.5077 3.49239 22.0001 5.33334 22.0001H5.8889C7.72986 22.0001 9.22225 20.5077 9.22225 18.6667V13.6667C9.22225 11.8258 7.72986 10.3334 5.8889 10.3334H5.33334Z" fill="black"/>
<path fill-rule="evenodd" clip-rule="evenodd" d="M18.1112 10.3334C16.2703 10.3334 14.7779 11.8258 14.7779 13.6667V18.6667C14.7779 20.5077 16.2703 22.0001 18.1112 22.0001H18.6668C20.5078 22.0001 22.0001 20.5077 22.0001 18.6667L22.0001 13.6667C22.0001 11.8258 20.5078 10.3334 18.6668 10.3334H18.1112Z" fill="black"/>
<path fill-rule="evenodd" clip-rule="evenodd" d="M10.8889 4.22222C7.20701 4.22222 4.22223 7.20699 4.22223 10.8889V15.8889H2V10.8889C2 5.97969 5.97971 2 10.8889 2L13.1112 2C18.0204 2 22.0001 5.9797 22.0001 10.8889V15.8889H19.7778V10.8889C19.7778 7.207 16.7931 4.22223 13.1112 4.22223L10.8889 4.22222Z" fill="black"/>
</svg>
