<svg width="28" height="28" viewBox="0 0 28 28" fill="none" xmlns="http://www.w3.org/2000/svg">
<g clip-path="url(#clip0_222_34)">
<path d="M5 5.543C5 3.0938 6.20703 1.875 8.63281 1.875H19.5898C22.0039 1.875 23.2109 3.0938 23.2109 5.543V23.3203C23.2109 25.7578 22.0039 27 19.5898 27H8.63281C6.20703 27 5 25.7578 5 23.3203V5.543ZM11.1055 22.9453C10.6719 22.9453 10.3086 23.2969 10.3086 23.7305C10.3086 24.1641 10.6719 24.5156 11.1055 24.5156H17.1055C17.5508 24.5156 17.9023 24.1641 17.9023 23.7305C17.9023 23.2969 17.5508 22.9453 17.1055 22.9453H11.1055Z" fill="black" fill-opacity="0.85"/>
</g>
<defs>
<clipPath id="clip0_222_34">
<rect width="18.2109" height="25.1367" fill="white" transform="matrix(1 0 0 -1 5 27)"/>
</clipPath>
</defs>
</svg>
