<svg width="24" height="24" viewBox="0 0 24 24" fill="none" xmlns="http://www.w3.org/2000/svg">
<path d="M17.5558 8C17.9684 8 18.1748 8.0004 18.3488 8.01563C20.2825 8.18484 21.8153 9.71765 21.9845 11.6514C21.9997 11.8253 22.0001 12.0317 22.0001 12.4443V15.5996C22.0001 17.8398 22.0005 18.9608 21.5646 19.8164C21.1811 20.5689 20.569 21.181 19.8165 21.5645C18.9609 22.0004 17.8399 22 15.5997 22H12.3048C12.022 22 11.8804 22.0003 11.7609 21.9932C9.74026 21.872 8.12814 20.2599 8.00696 18.2393C7.9998 18.1197 8.00012 17.9782 8.00012 17.6953C8.00012 17.6605 8.00022 17.6427 8.0011 17.6279C8.01587 17.3787 8.21216 17.1787 8.46106 17.1592C8.47582 17.158 8.49362 17.1579 8.52844 17.1572L9.14856 17.1455C11.9016 17.0945 13.2779 17.0685 14.3273 16.5166C15.2506 16.031 15.9994 15.2691 16.4679 14.3369C17.0003 13.2775 17.0001 11.9002 17.0001 9.14648V8.55566C17.0001 8.50406 17.0002 8.47781 17.0021 8.45605C17.0234 8.21459 17.2147 8.0232 17.4562 8.00195C17.4779 8.00005 17.5042 8 17.5558 8ZM9.59973 2C11.8399 2 12.9609 1.99957 13.8165 2.43555C14.569 2.81902 15.1811 3.43109 15.5646 4.18359C16.0005 5.03924 16.0001 6.16018 16.0001 8.40039V9.59961C16.0001 11.8398 16.0005 12.9608 15.5646 13.8164C15.1811 14.5689 14.569 15.181 13.8165 15.5645C12.9609 16.0004 11.8399 16 9.59973 16H8.40051C6.1603 16 5.03936 16.0004 4.18372 15.5645C3.43121 15.181 2.81914 14.5689 2.43567 13.8164C1.9997 12.9608 2.00012 11.8398 2.00012 9.59961V8.40039C2.00012 6.16018 1.9997 5.03924 2.43567 4.18359C2.81914 3.43109 3.43121 2.81902 4.18372 2.43555C5.03936 1.99957 6.1603 2 8.40051 2H9.59973Z" fill="#22272F"/>
</svg>
