<svg width="24" height="24" viewBox="0 0 24 24" fill="none" xmlns="http://www.w3.org/2000/svg">
<g clip-path="url(#clip0_132_37)">
<path d="M10.5469 0.0700908C10.2703 0.15898 10.0172 0.374184 9.9 0.617459C9.84375 0.72974 9.66562 1.4081 9.49687 2.12389C9.32812 2.84436 9.17812 3.44319 9.16406 3.45723C9.15 3.46658 8.91094 3.56951 8.63437 3.68647C8.35781 3.79875 8.07656 3.91103 8.01094 3.9391C7.89375 3.99056 7.80469 3.94377 6.83906 3.34494C5.48906 2.50752 5.40469 2.46541 5.07187 2.46073C4.62656 2.46073 4.47656 2.55898 3.48281 3.53676C2.50312 4.49582 2.39062 4.65488 2.39062 5.07594C2.39062 5.38003 2.4375 5.4736 3.25312 6.82565L3.94219 7.96249L3.75469 8.41629C3.65625 8.66424 3.54844 8.94494 3.52031 9.03851C3.4875 9.13208 3.42656 9.22097 3.38437 9.235C3.34219 9.24904 2.72344 9.39874 2.01562 9.56717C0.567187 9.91336 0.398437 9.98354 0.164062 10.3578L0.0234375 10.587V11.9952C0.0234375 13.2818 0.0328125 13.4175 0.1125 13.5672C0.225 13.7824 0.4125 13.9789 0.585937 14.0724C0.665625 14.1099 1.34531 14.2923 2.1 14.4748L3.47344 14.8069L3.65156 15.2748C3.75 15.5321 3.8625 15.8081 3.9 15.883C3.975 16.0233 3.97031 16.028 3.7125 16.4444C2.35312 18.6292 2.31562 18.7134 2.46094 19.2186C2.53594 19.4713 2.59687 19.5414 3.45937 20.4116C4.02656 20.9777 4.45312 21.3707 4.57031 21.4268C4.84687 21.5625 5.25469 21.5531 5.55469 21.4034C5.68594 21.3426 6.2625 20.9964 6.84375 20.6408C7.87031 20.0046 7.90312 19.9906 8.03906 20.0514C8.11875 20.0841 8.40469 20.1964 8.68125 20.3087L9.18281 20.5052L9.375 21.3286C9.89531 23.5227 9.89531 23.518 10.3312 23.7894L10.5609 23.9297L11.8312 23.9438C13.2328 23.9625 13.4766 23.9344 13.7672 23.7239C14.0578 23.5134 14.175 23.2139 14.4844 21.8713C14.6391 21.2023 14.7844 20.6128 14.8078 20.5566C14.8312 20.5005 14.9297 20.4397 15.0516 20.4023C15.1641 20.3695 15.4453 20.2619 15.6703 20.1637L16.0828 19.9859L17.1937 20.6642C18.5156 21.4783 18.6047 21.5204 18.9375 21.5204C19.3922 21.5204 19.5656 21.3987 20.5641 20.3929C21.4125 19.5321 21.4641 19.4713 21.5391 19.2093C21.675 18.7508 21.6187 18.6198 20.7703 17.2397L20.025 16.0373L20.1656 15.7286C20.2453 15.5555 20.3578 15.2794 20.4141 15.111L20.5172 14.8069L21.8062 14.4982C22.5141 14.3251 23.175 14.1613 23.2687 14.1286C23.4984 14.0537 23.7469 13.8338 23.8734 13.5952C23.9719 13.4128 23.9766 13.3379 23.9906 12.1403C24.0047 10.7929 23.9859 10.5824 23.7891 10.283C23.5922 9.98354 23.3719 9.89933 21.9187 9.54845C21.1781 9.37067 20.5641 9.22097 20.5594 9.21161C20.55 9.20225 20.4328 8.91219 20.2969 8.57067L20.0531 7.95313L20.7609 6.7929C21.15 6.15196 21.5016 5.55313 21.5391 5.45956C21.6469 5.20225 21.6281 4.87477 21.4922 4.60342C21.3469 4.30869 19.6406 2.65723 19.3687 2.54027C19.1484 2.4467 18.7734 2.44202 18.5625 2.52623C18.4734 2.55898 17.8734 2.91454 17.2359 3.30752L16.0734 4.02331L15.8062 3.88763C15.6609 3.81278 15.375 3.69582 15.1781 3.62565C14.9625 3.55079 14.8078 3.46658 14.7937 3.4198C14.7797 3.37769 14.6391 2.78822 14.4844 2.10518C14.3016 1.31454 14.1516 0.771845 14.0719 0.608102C13.9266 0.322722 13.6687 0.112196 13.3781 0.046699C13.0734 -0.0281548 10.7953 -0.00476301 10.5469 0.0700908ZM12.9844 8.05138C14.6156 8.45839 15.8578 9.89465 16.0312 11.5695C16.2047 13.2397 15.3047 14.849 13.7672 15.6023C13.1437 15.9063 12.7172 16.0046 12 16.0046C11.2922 16.0046 10.8703 15.911 10.2328 15.6023C8.70937 14.8584 7.79531 13.2397 7.96875 11.5695C8.22187 9.12272 10.5984 7.45722 12.9844 8.05138Z" fill="black"/>
</g>
<defs>
<clipPath id="clip0_132_37">
<rect width="24" height="24" fill="white"/>
</clipPath>
</defs>
</svg>
