<svg width="28" height="28" viewBox="0 0 28 28" fill="none" xmlns="http://www.w3.org/2000/svg">
<path fill-rule="evenodd" clip-rule="evenodd" d="M3.67969 24.5743H23.9531C26.4141 24.5743 27.6328 23.3555 27.6328 20.9414V6.63281C27.6328 4.21875 26.4141 3 23.9531 3H3.67969C1.23047 3 0 4.20703 0 6.63281V20.9414C0 23.3672 1.23047 24.5743 3.67969 24.5743ZM9.29297 21.7852C8.97656 21.7852 8.74219 22.0078 8.74219 22.3243C8.74219 22.6407 8.97656 22.8633 9.29297 22.8633H18.3516C18.668 22.8633 18.8906 22.6407 18.8906 22.3243C18.8906 22.0078 18.668 21.7852 18.3516 21.7852H9.29297Z" fill="black" fill-opacity="0.85"/>
</svg>
