<svg width="427" height="58" viewBox="0 0 427 58" fill="none" xmlns="http://www.w3.org/2000/svg">
<path d="M27.4145 1.25489C29.6874 2.84625 28.6646 5.46064 25.7098 5.46064C24.8574 5.46064 21.789 4.72179 18.891 3.81244C15.993 2.84625 12.6404 1.9369 11.4471 1.70956C8.49228 1.19805 4.85558 2.67575 3.26452 5.0628C1.55982 7.50668 1.50299 11.1441 3.09405 12.565C4.1737 13.588 4.23052 13.5311 4.23052 12.3376C4.23052 8.24553 6.16252 8.01819 17.1863 10.8599C26.9599 13.4175 29.1192 13.1901 31.6763 9.43905C32.7559 7.90452 32.9264 4.83546 32.074 3.13042C31.3921 1.9369 28.6646 0.345534 27.1304 0.345534C26.278 0.345534 26.3349 0.459203 27.4145 1.25489Z" fill="black"/>
<path d="M326.305 0.970646C327.669 1.7095 327.953 3.69871 326.873 4.77857C325.794 5.85843 323.066 5.57425 317.611 3.69871C309.372 0.856977 304.712 1.31165 302.155 5.06274C300.394 7.6203 300.45 10.6325 302.269 12.6786L303.689 14.27L303.348 12.6786C302.837 10.462 304.371 8.87067 307.042 8.87067C308.178 8.87067 311.304 9.49585 313.918 10.2347C322.214 12.6218 324.828 12.9628 327.271 12.1671C333.408 10.121 333.181 1.59583 326.987 0.629638C325.225 0.345465 325.112 0.4023 326.305 0.970646Z" fill="black"/>
<path d="M39.0635 4.49437C35.4268 7.05192 35.0858 7.44976 35.9382 8.07494C36.7905 8.70012 36.9042 10.3483 37.0746 23.4203C37.2451 36.8332 37.1315 38.1972 36.2791 38.8224C35.3131 39.5044 35.3699 39.6181 36.6769 40.8116C37.4156 41.4936 38.7225 42.6303 39.5749 43.426L41.1091 44.79L43.6094 42.9713L46.1096 41.1526L44.8027 39.8454L43.4389 38.4814V20.1807C43.4389 10.121 43.3821 1.82314 43.3252 1.70947C43.2116 1.65264 41.3364 2.903 39.0635 4.49437Z" fill="black"/>
<path d="M269.71 4.38066C266.073 6.93821 265.732 7.33605 266.471 8.0749C267.21 8.81375 267.323 11.3713 267.323 23.9318C267.323 37.3447 267.21 38.9361 266.357 39.2203C265.562 39.5613 265.619 39.7318 266.812 40.5275C267.551 41.039 268.971 42.1757 269.881 43.0282L271.585 44.6195L274.313 42.9145L276.983 41.1526L275.563 40.0159L274.142 38.9361L274.029 20.2375L273.858 1.53893L269.71 4.38066Z" fill="black"/>
<path d="M94.8637 2.56206C92.1362 3.41458 90.0337 6.19946 90.0337 8.92751V10.121L91.0566 8.87068C91.8521 7.84766 92.4772 7.67716 93.5568 7.90449C95.0342 8.30233 96.7958 11.0304 106.569 28.1944C108.217 31.1498 110.036 34.2757 110.49 35.0713C110.945 35.867 112.365 38.3677 113.616 40.5843C114.809 42.8576 116.059 44.6763 116.286 44.6763C116.911 44.6763 116.855 30.6383 116.286 30.3541C116.002 30.2404 113.786 26.7167 111.343 22.5109C101.91 6.2563 100.66 4.26709 99.5233 3.52825C97.8186 2.44839 96.2275 2.10739 94.8637 2.56206Z" fill="black"/>
<path d="M122.253 3.52819C121.06 5.1764 119.412 5.23324 116.741 3.8692L114.809 2.78934L112.65 5.29007C111.457 6.65411 110.491 7.96131 110.491 8.18864C110.491 8.87066 112.877 10.1779 114.923 10.6325C118.901 11.4851 122.992 8.87066 123.844 4.83539C124.356 2.50517 123.503 1.82315 122.253 3.52819Z" fill="black"/>
<path d="M193.055 3.01665C191.634 3.30082 188.338 6.31305 188.338 7.33607C188.338 7.79074 188.566 7.73391 189.02 7.27923C190.043 6.25621 192.202 6.48355 192.884 7.67707C193.168 8.30225 193.453 11.485 193.453 14.7814C193.453 20.749 193.453 20.8058 192.089 20.8058C191.293 20.8058 189.929 21.4879 188.963 22.2835C186.975 23.9317 186.634 26.5461 188.111 28.649C189.134 30.1267 190.157 30.354 189.645 28.99C189.248 27.9102 190.839 26.4893 192.43 26.4893C193.339 26.4893 193.453 27.1713 193.453 34.3893V42.3461L195.271 41.7778C196.294 41.4936 197.998 41.4368 198.964 41.6073L200.84 41.9483V24.2727V6.59722L199.305 4.94902C197.714 3.24398 195.385 2.56197 193.055 3.01665Z" fill="black"/>
<path d="M210.045 5.00579L207.147 7.33601L209.079 8.81371L211.011 10.2914L211.068 25.0684C211.068 37.572 210.954 40.0728 210.159 41.1526C209.704 41.8346 208.795 42.403 208.17 42.403C206.124 42.403 207.602 43.426 210.216 43.8238C211.75 44.0512 213.625 43.9375 214.818 43.5397C218.228 42.403 218.455 41.2095 218.455 23.136V7.27918L215.671 4.94896L212.886 2.61874L210.045 5.00579Z" fill="black"/>
<path d="M336.818 6.54042C335.795 7.39294 334.942 8.35913 334.942 8.6433C334.942 8.98431 335.852 10.0642 336.874 11.0872L338.863 13.0196L340.852 11.3714C341.932 10.462 342.841 9.49583 342.841 9.26849C342.898 8.52964 339.829 4.89221 339.204 4.89221C338.92 4.94905 337.784 5.63106 336.818 6.54042Z" fill="black"/>
<path d="M143.392 11.4282C141.403 12.5081 139.755 15.6908 140.267 17.6232C140.437 18.4189 141.517 20.1239 142.596 21.3174L144.585 23.4771V31.8318C144.585 36.3785 144.756 40.1296 145.04 40.1296C145.267 40.1296 146.688 41.1526 148.222 42.403L150.949 44.6763L153.45 42.9145C154.813 42.0051 155.95 40.9821 155.95 40.6979C155.95 40.4138 154.927 39.5044 153.677 38.5951L151.404 37.0037V29.3311C151.404 25.1253 151.233 21.0901 151.063 20.4081C150.836 19.6692 149.472 18.2484 147.938 17.1117C145.04 15.0088 143.96 12.8491 145.153 11.4282C146.006 10.3484 145.324 10.3484 143.392 11.4282Z" fill="black"/>
<path d="M309.372 12.9627C301.815 16.7138 297.723 25.2958 299.94 32.8548C303.86 46.3814 321.703 49.4505 328.806 37.8562C330.397 35.2419 331.761 30.4678 330.965 30.4678C330.681 30.4678 330.34 30.9224 330.17 31.4908C329.658 32.9685 326.021 36.7195 324.999 36.7195C324.544 36.7195 324.146 36.9469 324.146 37.2311C324.146 38.3109 318.634 39.1066 315.509 38.4814C309.031 37.1174 306.02 32.7411 305.963 24.7275C305.963 22.0562 306.133 19.6692 306.361 19.4419C306.588 19.2714 306.815 18.703 306.872 18.3052C307.042 16.998 308.861 14.6109 310.736 13.1332C312.895 11.3714 312.611 11.3714 309.372 12.9627Z" fill="black"/>
<path d="M8.71959 13.8722C-0.485832 19.7261 -2.36101 30.9225 4.45782 39.2771C10.1402 46.2109 21.8458 46.9497 27.7555 40.7548C29.6875 38.7088 32.0741 33.7642 32.0741 31.8318V30.1836L30.9944 31.9455C29.4034 34.5598 25.3121 37.7994 22.755 38.4814C19.6865 39.3339 15.3111 38.6519 12.4131 37.0037C7.86723 34.3325 5.65111 27.5692 7.0717 20.6923C7.69676 17.9074 8.32182 16.7139 10.197 14.7247C12.9245 11.883 12.3563 11.5988 8.71959 13.8722Z" fill="black"/>
<path d="M15.5952 15.5772L12.4699 17.1117V25.239C12.4699 29.6721 12.5267 33.3095 12.6404 33.3095C12.6972 33.3095 14.2883 32.5138 16.1635 31.6044L19.5729 29.8994V21.9426C19.5729 17.5664 19.4024 13.9858 19.1751 13.9858C18.891 14.0426 17.2999 14.7246 15.5952 15.5772Z" fill="black"/>
<path d="M314.658 15.4066L311.646 16.7706V25.0684V33.3095L315.056 31.6044L318.465 29.8994V21.9425C318.465 17.5663 318.295 13.9857 318.067 14.0425C317.783 14.0425 316.249 14.6677 314.658 15.4066Z" fill="black"/>
<path d="M49.0641 16.9981C48.6095 17.3959 47.473 18.2484 46.6207 18.9304L44.9728 20.2376L46.507 21.4312C49.5187 23.8182 49.4619 23.4204 49.3482 34.2758C49.2346 45.7563 48.7232 47.8592 45.5979 49.7916L43.7227 50.9283H45.7115C49.0073 50.9283 52.5872 48.7686 54.235 45.8132C55.5988 43.3693 55.6556 42.6873 55.9398 32.0024C56.1102 25.8643 56.0534 20.806 55.7693 20.806C55.542 20.806 54.235 19.783 52.8713 18.5326C50.0869 15.975 50.3142 16.0319 49.0641 16.9981Z" fill="black"/>
<path d="M67.5887 19.5555L61.9063 22.8519L61.7926 30.7519L61.7358 38.7087L65.5998 41.38C67.7591 42.9145 69.8048 44.108 70.1457 44.108C70.4867 44.108 71.7368 43.3123 72.9301 42.2893L75.0894 40.4706L71.7936 38.0267L68.441 35.5828V27.5123V19.385L70.9981 23.3066C72.4187 25.4663 73.5552 27.4555 73.5552 27.6828C73.5552 27.9102 73.1006 28.4217 72.5892 28.7059C72.0209 29.0469 71.7936 29.331 72.0209 29.331C72.7028 29.331 78.6693 24.7843 78.6693 24.2159C78.6693 23.5339 74.0098 16.2591 73.612 16.3159C73.4415 16.3159 70.714 17.7936 67.5887 19.5555Z" fill="black"/>
<path d="M132.425 17.1116C131.516 17.6231 128.845 19.044 126.572 20.3512L122.424 22.7382V30.6951L122.481 38.7087L126.345 41.5505C128.504 43.085 130.379 44.3922 130.55 44.3922C130.72 44.3922 131.913 43.5397 133.163 42.5167L135.55 40.5843L132.538 38.2541C130.89 36.9469 129.356 35.6397 129.186 35.4123C128.618 34.6167 128.618 20.2375 129.129 20.2375C129.413 20.2375 130.72 21.8289 131.97 23.7613L134.3 27.3418L133.05 28.7059C132.027 29.8426 132.254 29.7857 134.357 28.308C135.777 27.285 137.539 25.9778 138.277 25.4095L139.641 24.3296L137.141 20.2943C135.777 18.0778 134.527 16.2591 134.357 16.2591C134.186 16.2591 133.334 16.6569 132.425 17.1116Z" fill="black"/>
<path d="M157.37 18.5325C155.268 20.6354 155.211 20.8059 156.12 21.8289C156.916 22.7383 157.086 24.2728 157.086 31.775V40.698L160.098 42.6872L163.166 44.7332L169.474 40.9822L175.838 37.2311V29.0469C175.838 24.4433 176.065 20.749 176.406 20.5217C176.69 20.3512 175.952 19.2713 174.702 18.1915L172.485 16.1454L169.871 18.2483C167.144 20.5217 166.86 21.0901 168.167 21.6016C168.849 21.8289 169.019 23.4771 169.019 31.3203C169.019 36.4922 168.905 40.698 168.735 40.698C168.621 40.698 167.314 39.9023 165.894 38.8793L163.337 37.0606V29.8426C163.337 24.0455 163.507 22.5109 164.189 21.9426C164.985 21.2606 164.814 20.8627 162.655 18.703C161.348 17.3958 160.098 16.2591 159.927 16.2591C159.757 16.2591 158.62 17.2821 157.37 18.5325Z" fill="black"/>
<path d="M229.821 19.3281L224.423 22.3403L224.138 30.6382L223.854 38.9929L227.321 41.5505C229.252 42.9713 231.184 44.108 231.582 44.108C232.037 44.108 234.764 42.5735 237.662 40.6979L242.89 37.3447V29.4447V21.4878L239.765 19.1576C238.06 17.8504 236.299 16.6569 235.958 16.5432C235.56 16.4295 232.776 17.6799 229.821 19.3281ZM233.798 21.6015L236.355 23.477L236.526 32.0591C236.583 36.8332 236.526 40.6979 236.299 40.6979C236.128 40.6979 234.708 39.7886 233.173 38.6519L230.389 36.6058V28.1375C230.389 23.477 230.559 19.6691 230.844 19.7259C231.071 19.7259 232.378 20.5785 233.798 21.6015Z" fill="black"/>
<path d="M248.684 18.0209L246.241 19.7828L247.718 20.9195C249.139 21.9993 249.139 22.113 249.139 30.2972C249.139 37.5152 249.025 38.6519 248.173 39.3339C247.605 39.7317 247.434 40.1296 247.832 40.1296C248.173 40.1296 249.707 41.1526 251.128 42.403L253.742 44.6763L256.299 42.9145L258.913 41.1526L257.435 39.6181C255.958 38.0835 255.958 37.913 255.958 29.7288C255.958 25.1252 256.185 21.3742 256.469 21.3742C256.753 21.3742 257.265 21.772 257.663 22.2835C258.174 22.8519 259.14 23.0792 260.447 22.9655C261.981 22.8519 262.72 22.3404 263.743 20.8627C265.391 18.4188 265.447 16.8274 263.97 17.2252C263.402 17.3957 262.322 17.1684 261.583 16.8274C260.447 16.2022 260.106 16.3727 258.06 18.4756L255.844 20.8627L253.855 18.5324C252.776 17.2821 251.696 16.2591 251.526 16.2591C251.298 16.3159 250.048 17.1116 248.684 18.0209Z" fill="black"/>
<path d="M280.959 18.8165L279.255 21.3172L280.903 22.2266C284.71 24.1589 288.403 22.6244 290.051 18.305C290.563 16.8841 290.563 16.7704 289.653 17.1115C287.494 18.0208 286.13 18.0208 284.482 17.1683L282.721 16.2589L280.959 18.8165Z" fill="black"/>
<path d="M335.681 18.0778L333.351 19.8397L334.715 21.3174C336.021 22.7382 336.078 23.1361 336.078 30.5246C336.078 36.4922 335.908 38.4246 335.283 38.9361C334.601 39.5044 334.942 40.0728 337.272 42.1757L339.999 44.79L342.84 42.9713L345.681 41.1526L343.977 39.7318L342.272 38.3109L342.386 29.5584L342.443 20.8059L340.454 18.5325C339.431 17.2821 338.408 16.2591 338.294 16.3159C338.181 16.3159 336.987 17.1116 335.681 18.0778Z" fill="black"/>
<path d="M349.83 18.0209L347.444 19.7828L348.864 20.9195C350.285 21.9993 350.285 22.113 350.285 30.5245C350.285 35.8102 350.058 38.9929 349.717 38.9929C348.41 38.9929 349.319 40.7548 351.535 42.6303L353.921 44.6763L356.365 42.2893C358.638 40.0727 358.751 39.8454 357.842 38.8792C357.047 38.0267 356.933 36.549 357.047 29.5583L357.16 21.3173L355.058 18.9303C353.865 17.6231 352.785 16.4864 352.558 16.3727C352.387 16.3159 351.137 17.0547 349.83 18.0209Z" fill="black"/>
<path d="M362.162 16.998C361.708 17.3958 360.571 18.2483 359.662 18.9872L358.014 20.2944L359.378 21.2037C362.731 23.5339 362.787 23.7613 362.787 30.9224C362.787 35.9239 362.56 37.9131 361.935 38.7656C360.799 40.3001 360.799 40.357 363.526 42.5735L366.026 44.6195L368.527 42.403C370.913 40.3001 370.97 40.1865 370.004 39.1634C369.208 38.1972 369.038 36.8332 369.038 29.5016V20.9764L366.254 18.6462C363.071 15.975 363.356 16.0886 362.162 16.998Z" fill="black"/>
<path d="M372.732 18.2483L370.459 20.1807L372.618 21.9426L374.721 23.7045V30.8088C374.721 35.1282 374.493 38.2541 374.096 38.8793C373.527 39.7886 373.811 40.3001 375.914 42.2893L378.414 44.6195L380.403 43.426C384.096 41.2095 384.21 40.9253 382.449 39.0498L380.858 37.4016L381.085 29.2742L381.255 21.0901L378.528 18.6462C377.05 17.339 375.63 16.2591 375.402 16.2591C375.175 16.316 373.982 17.1685 372.732 18.2483Z" fill="black"/>
<path d="M393.187 19.5555L387.505 22.8519V30.7519V38.5951L391.426 41.6073C394.381 43.8807 395.574 44.5059 396.256 44.108C397.79 43.1987 401.768 39.5613 400.802 39.8454C400.29 40.0728 398.699 39.2203 396.995 37.8562L394.04 35.4692V27.8533C394.04 23.6476 394.21 20.2375 394.494 20.2375C394.722 20.2375 395.915 21.9426 397.108 23.9886C399.268 27.626 399.324 27.7965 398.302 28.5354C397.733 28.99 397.392 29.331 397.677 29.331C398.358 29.331 404.268 24.7843 404.268 24.2159C404.268 23.5339 399.609 16.2591 399.211 16.2591C399.04 16.2591 396.313 17.7368 393.187 19.5555Z" fill="black"/>
<path d="M412.961 18.8735L408.244 21.4879V25.921C408.244 30.2972 408.244 30.3541 410.233 31.8318L412.165 33.3095L414.722 31.5476C417.222 29.7857 417.222 29.7857 418.7 30.8087C420.007 31.8318 420.12 32.2296 420.177 36.3785V40.8116L418.359 39.0497C417.336 38.0267 415.916 37.1174 415.177 36.89C413.302 36.4354 408.699 37.1742 408.131 38.0267C407.108 39.6181 406.994 42.403 407.903 43.8238C408.926 45.3584 410.12 45.7562 409.608 44.3922C408.642 41.9483 412.677 40.9821 415.29 43.0282L416.768 44.2217L421.882 40.9821L426.996 37.7426V33.6505V29.5584L424.723 27.8533C423.473 26.944 422.45 25.9778 422.45 25.6936C422.45 25.4663 421.427 26.1483 420.177 27.285C417.563 29.6152 417.45 29.672 415.745 28.4217C414.665 27.6828 414.495 27.0577 414.495 23.1929V18.8166L415.972 20.408C417.904 22.5109 419.893 23.2497 422.621 22.7382C424.439 22.4541 424.95 22.0562 425.632 20.4649C426.087 19.4418 426.428 18.021 426.428 17.339C426.428 16.1454 426.371 16.1454 425.405 16.9979C424.098 18.1915 421.427 18.1915 419.95 17.1116C418.416 15.9181 418.188 15.9749 412.961 18.8735Z" fill="black"/>
<path d="M93.4432 18.5326C89.5224 19.4988 88.1586 23.8182 90.8861 26.8873C92.1363 28.365 92.2499 28.365 92.3067 27.2851C92.3067 25.7506 93.3864 24.7844 94.9774 24.7844C96.1707 24.7844 96.2844 24.557 96.2844 21.3743C96.2844 19.4988 96.1139 17.9643 95.8866 18.0211C95.6025 18.0779 94.5228 18.3053 93.4432 18.5326Z" fill="black"/>
<path d="M324.203 18.8734C324.203 19.4986 324.374 19.6691 324.544 19.2144C324.715 18.8166 324.658 18.3051 324.487 18.1346C324.317 17.9072 324.146 18.2483 324.203 18.8734Z" fill="black"/>
<path d="M322.728 21.9992L321.023 23.6474L322.784 25.2956L324.489 26.887L326.364 25.2388C327.387 24.3295 328.126 23.5338 328.012 23.4769C327.899 23.4201 327.046 22.6813 326.137 21.8856L324.432 20.351L322.728 21.9992Z" fill="black"/>
<path d="M23.5505 22.2267L22.2436 23.6475L23.5505 25.0684C25.2552 26.8302 25.8803 26.8302 27.585 25.0115L28.9487 23.5338L27.3577 22.1698C25.3689 20.4648 25.1984 20.4648 23.5505 22.2267Z" fill="black"/>
<path d="M276.587 25.3527L274.712 28.1376L280.167 36.3786L285.622 44.6195L288.293 42.8577C289.713 41.8915 290.963 41.039 291.077 40.9821C291.134 40.9253 288.634 37.0606 285.452 32.4002C282.269 27.7397 279.599 23.5908 279.428 23.193C278.974 22.0563 278.519 22.3973 276.587 25.3527Z" fill="black"/>
<path d="M94.0117 35.526C89.6931 36.3785 87.1929 39.1066 87.1929 42.9145C87.1929 45.5289 89.2386 48.2569 91.7388 48.9958C93.1025 49.3368 93.1025 49.3368 92.1934 48.2569C88.8408 44.5627 93.6708 40.4706 97.6484 43.5965C98.5008 44.2785 99.3531 44.6195 99.5804 44.3354C99.8077 44.0512 100.831 42.8577 101.91 41.721C104.126 39.2771 103.899 38.5382 100.319 36.7764C97.4779 35.2987 96.2847 35.0713 94.0117 35.526Z" fill="black"/>
<path d="M403.303 38.1972L401.712 39.618L403.587 38.3677C404.553 37.6288 405.406 37.0036 405.406 36.89C405.406 36.4353 404.781 36.8331 403.303 38.1972Z" fill="black"/>
<path d="M190.838 43.4261C188.168 45.529 187.599 48.9391 189.418 51.6671C191.691 55.1909 194.873 55.9297 201.976 54.6225C210.84 52.9743 212.829 52.9175 213.681 54.0542C214.136 54.6225 214.307 55.7024 214.136 56.4412C213.681 58.2599 214.761 58.1463 216.807 56.1002C219.193 53.7132 219.137 50.3031 216.693 48.0297C215.727 47.1204 214.25 46.3247 213.397 46.2679C210.443 46.0974 206.181 46.4952 202.715 47.2909C198.169 48.3139 193.68 48.4276 192.6 47.5182C191.577 46.6657 191.463 44.0513 192.429 43.0851C193.452 42.0621 192.202 42.2895 190.838 43.4261Z" fill="black"/>
</svg>
