<svg width="28" height="28" viewBox="0 0 28 28" fill="none" xmlns="http://www.w3.org/2000/svg">
<g clip-path="url(#clip0_282_111)">
<path d="M3.9375 10.4766C4.55859 10.4766 4.88672 10.125 4.88672 9.51562V6.75C4.88672 5.53125 5.53125 4.91016 6.70312 4.91016H9.53906C10.1602 4.91016 10.5 4.57031 10.5 3.96094C10.5 3.35156 10.1602 3.02344 9.53906 3.02344H6.67969C4.23047 3.02344 3 4.23047 3 6.64453V9.51562C3 10.125 3.33984 10.4766 3.9375 10.4766ZM24.9961 10.4766C25.6172 10.4766 25.9453 10.125 25.9453 9.51562V6.64453C25.9453 4.23047 24.7148 3.02344 22.2656 3.02344H19.3945C18.7852 3.02344 18.4453 3.35156 18.4453 3.96094C18.4453 4.57031 18.7852 4.91016 19.3945 4.91016H22.2305C23.3906 4.91016 24.0586 5.53125 24.0586 6.75V9.51562C24.0586 10.125 24.3984 10.4766 24.9961 10.4766ZM6.67969 25.957H9.53906C10.1602 25.957 10.5 25.6172 10.5 25.0195C10.5 24.4102 10.1602 24.0703 9.53906 24.0703H6.70312C5.53125 24.0703 4.88672 23.4492 4.88672 22.2305V19.4648C4.88672 18.8438 4.54688 18.5039 3.9375 18.5039C3.32812 18.5039 3 18.8438 3 19.4648V22.3242C3 24.75 4.23047 25.957 6.67969 25.957ZM19.3945 25.957H22.2656C24.7148 25.957 25.9453 24.7383 25.9453 22.3242V19.4648C25.9453 18.8438 25.6055 18.5039 24.9961 18.5039C24.3867 18.5039 24.0586 18.8438 24.0586 19.4648V22.2305C24.0586 23.4492 23.3906 24.0703 22.2305 24.0703H19.3945C18.7852 24.0703 18.4453 24.4102 18.4453 25.0195C18.4453 25.6172 18.7852 25.957 19.3945 25.957Z" fill="black" fill-opacity="0.85"/>
<g clip-path="url(#clip1_282_111)">
<path d="M6.87216 16.765C7.09169 16.6968 7.19768 16.4697 7.13712 16.2123C6.94786 15.4477 6.83431 14.6377 6.87216 13.5779C6.87973 13.2978 6.72832 13.1464 6.50121 13.1312C6.20597 13.1085 6.04699 13.2902 6.02428 13.5249C5.95615 14.3804 6.02428 15.4023 6.31952 16.4546C6.39523 16.712 6.63748 16.8406 6.87216 16.765ZM6.53906 12.2531C6.7586 12.3363 7.0387 12.2379 7.14468 11.9503C8.3635 8.54362 11.2781 6.84787 14.238 6.84787C15.5856 6.84787 16.6454 7.12041 17.5463 7.63518C17.8037 7.78659 18.0914 7.78659 18.2049 7.53677C18.326 7.27181 18.1897 7.10527 18.0005 6.98414C16.8498 6.26496 15.684 6 14.238 6C10.8163 6 7.71246 7.82444 6.31952 11.5339C6.17569 11.9124 6.31952 12.1774 6.53906 12.2531ZM22.2853 15.0011C22.5276 15.0011 22.7017 14.8043 22.6789 14.5393C22.3383 11.4582 21.3239 9.51262 19.5751 7.98342C19.3556 7.78659 19.0906 7.84716 18.9619 7.99856C18.8181 8.15753 18.8029 8.40735 19.0301 8.61175C20.5214 10.0047 21.604 11.8064 21.8613 14.5544C21.8916 14.8043 22.0431 15.0011 22.2853 15.0011Z" fill="black" fill-opacity="0.85"/>
<path d="M7.75032 18.9604C7.89415 19.1572 8.18182 19.2102 8.3938 19.0285C8.93886 18.5667 9.21139 17.8248 9.21139 17.0527C9.21139 16.0079 8.75717 15.478 8.75717 14.1759C8.75717 11.2084 11.2251 8.74045 14.1926 8.74045C17.7734 8.74045 20.0823 11.6702 20.0899 15.9928C20.0899 17.681 19.8098 18.8771 19.5297 19.566C19.4313 19.8007 19.5221 20.0505 19.719 20.1565C19.9309 20.2473 20.2262 20.1716 20.317 19.9218C20.6122 19.1193 20.9378 17.8021 20.9378 15.9852C20.9378 11.1629 18.2806 7.89258 14.1926 7.89258C10.7557 7.89258 7.9093 10.7466 7.9093 14.1759C7.9093 15.4174 8.37865 16.2578 8.38623 17.0451C8.38623 17.5598 8.19697 18.0519 7.84116 18.3623C7.65948 18.5137 7.62919 18.7863 7.75032 18.9604Z" fill="black" fill-opacity="0.85"/>
<path d="M11.1569 16.2653C10.9677 15.7506 10.6573 15.0995 10.6573 14.2214C10.6573 12.2077 12.2243 10.6406 14.238 10.6406C15.0102 10.6406 15.2524 10.7239 15.9262 11.0494C16.1609 11.1554 16.3729 11.0872 16.4561 10.9207C16.5697 10.7087 16.5092 10.4513 16.2517 10.2999C15.7521 10.0047 14.9875 9.78516 14.238 9.78516C11.755 9.78516 9.80185 11.7383 9.80185 14.2214C9.80185 15.1752 10.0592 15.9474 10.3242 16.5908C10.4302 16.8406 10.6573 16.9618 10.9298 16.8483C11.1569 16.7574 11.2402 16.5151 11.1569 16.2653Z" fill="black" fill-opacity="0.85"/>
<path d="M9.53689 20.3684C10.0971 20.0808 10.8617 19.0966 11.0737 18.3169C11.1342 18.1049 11.0358 17.8475 10.8011 17.7718C10.5892 17.6961 10.3621 17.8248 10.2788 18.0671C10.0744 18.7332 9.71858 19.2329 9.15838 19.6114C8.88585 19.8007 8.84799 20.0353 8.93127 20.2094C9.02211 20.3987 9.26436 20.5047 9.53689 20.3684ZM17.1148 12.0638C17.8491 13.1312 18.2125 14.6074 18.2125 16.394C18.2125 18.3017 17.6826 20.1034 16.8574 21.133C16.7211 21.3147 16.7059 21.5721 16.8725 21.7387C17.0542 21.9052 17.3646 21.8976 17.516 21.6932C18.4395 20.4441 19.0452 18.4607 19.0452 16.3637C19.0452 14.0699 18.5531 12.7073 17.8642 11.6096C17.7052 11.3673 17.4403 11.2916 17.2283 11.4052C17.0088 11.5263 16.9406 11.8064 17.1148 12.0638Z" fill="black" fill-opacity="0.85"/>
<path d="M11.1267 21.3677C12.3682 20.3684 13.0495 18.7786 13.042 17.0148C13.0344 15.6824 12.5575 14.8572 12.5575 14.1305C12.5575 13.1767 13.2312 12.5407 14.2154 12.5407C15.7294 12.5407 16.2215 14.2668 16.2669 16.3107C16.335 18.6727 15.4796 20.6712 14.3592 21.6554C14.1775 21.8068 14.1397 22.0415 14.2608 22.2307C14.4046 22.4351 14.6999 22.473 14.8967 22.2913C16.0777 21.2163 17.077 18.8544 17.0618 16.2502C17.0542 13.7066 16.335 11.6929 14.2154 11.6929C12.8073 11.6929 11.7247 12.6316 11.7247 14.0548C11.7247 14.9103 12.1789 15.9625 12.1865 17.0148C12.1941 18.5137 11.6339 19.8612 10.5967 20.7015C10.3924 20.8681 10.3621 21.1103 10.4908 21.2996C10.6497 21.5191 10.9223 21.5418 11.1267 21.3677Z" fill="black" fill-opacity="0.85"/>
<path d="M12.8981 21.9734C13.4962 21.5419 14.238 20.5501 14.5257 19.5811C14.5787 19.4146 14.5409 19.1345 14.2986 19.0512C14.0412 18.9604 13.8217 19.0891 13.7535 19.2859C13.3675 20.3003 12.8906 20.8984 12.3833 21.292C12.1941 21.4434 12.1411 21.6933 12.2698 21.8901C12.3909 22.1021 12.6862 22.1324 12.8981 21.9734ZM14.9572 17.8173C15.1692 16.7952 15.0859 15.4856 14.715 14.3501C14.6166 14.07 14.397 13.9488 14.1623 14.0246C13.9428 14.1003 13.8066 14.3047 13.8898 14.5696C14.238 15.6673 14.2986 16.7498 14.1245 17.7037C14.0791 17.9309 14.17 18.1504 14.4349 18.1882C14.6771 18.2336 14.9043 18.0898 14.9572 17.8173Z" fill="black" fill-opacity="0.85"/>
</g>
</g>
<defs>
<clipPath id="clip0_282_111">
<rect width="22.9453" height="22.957" fill="white" transform="translate(3 3)"/>
</clipPath>
<clipPath id="clip1_282_111">
<rect width="16.6809" height="16.42" fill="white" transform="translate(6 6)"/>
</clipPath>
</defs>
</svg>
