<svg width="25" height="24" viewBox="0 0 25 24" fill="none" xmlns="http://www.w3.org/2000/svg">
<g clip-path="url(#clip0_220_27)">
<path d="M3.19922 23.2656H21.3633C23.3555 23.2656 24.5625 21.8828 24.5625 20.0898C24.5625 19.5391 24.3984 18.9648 24.1055 18.4492L15.0117 2.60547C14.4023 1.53906 13.3594 1 12.2812 1C11.2031 1 10.1484 1.53906 9.55078 2.60547L0.457031 18.4492C0.140625 18.9766 0 19.5391 0 20.0898C0 21.8828 1.20703 23.2656 3.19922 23.2656Z" fill="#FBBC05"/>
<path d="M12.293 15.4375C11.6836 15.4375 11.3438 15.0859 11.332 14.4648L11.1797 8.08984C11.168 7.46875 11.625 7.02344 12.2812 7.02344C12.9141 7.02344 13.4062 7.48047 13.3945 8.10156L13.2188 14.4648C13.207 15.0977 12.8672 15.4375 12.293 15.4375ZM12.293 19.3633C11.5898 19.3633 10.9805 18.8008 10.9805 18.1094C10.9805 17.4062 11.5781 16.8438 12.293 16.8438C12.9961 16.8438 13.5938 17.3945 13.5938 18.1094C13.5938 18.8125 12.9844 19.3633 12.293 19.3633Z" fill="white"/>
</g>
<defs>
<clipPath id="clip0_220_27">
<rect width="24.5625" height="22.3945" fill="white" transform="translate(0 1)"/>
</clipPath>
</defs>
</svg>
