<svg width="28" height="28" viewBox="0 0 28 28" fill="none" xmlns="http://www.w3.org/2000/svg">
<path d="M19.7569 6.55371C21.6586 6.55371 23.6739 7.59672 25.1075 9.39453C20.4073 11.9859 21.1679 18.7368 25.917 20.543C25.2641 21.9983 24.9496 22.6485 24.1085 23.9375C22.935 25.737 21.2808 27.9776 19.2286 27.9941C17.4072 28.0139 16.9374 26.8007 14.4649 26.8154C11.9921 26.8286 11.4762 28.0171 9.65142 27.999C7.60082 27.9809 6.03284 25.9596 4.85943 24.1602C1.57663 19.1323 1.23163 13.2304 3.25591 10.0908C4.69608 7.86166 6.96755 6.55762 9.10162 6.55762C11.2733 6.55765 12.64 7.75586 14.4385 7.75586C16.1829 7.75577 17.2451 6.55379 19.7569 6.55371ZM19.2071 0C19.4575 1.70067 18.7658 3.36711 17.8526 4.5459C16.8756 5.81025 15.1912 6.78826 13.5596 6.7373C13.2618 5.10919 14.0244 3.43146 14.9522 2.30371C15.9701 1.0591 17.7146 0.103762 19.2071 0Z" fill="#0B0B0A"/>
</svg>
