<svg width="24" height="24" viewBox="0 0 24 24" fill="none" xmlns="http://www.w3.org/2000/svg">
<path d="M16.2816 1.03395C15.8374 1.12244 15.8875 1.1769 16.4177 1.1769C17.5784 1.1769 18.2375 1.64658 18.2375 2.46343C18.2375 2.9127 18.0369 3.28028 17.6429 3.53894C17.3921 3.70231 17.2703 3.72954 16.7401 3.75677C15.8445 3.7908 15.343 3.68189 13.2008 3.00799C10.2275 2.07543 9.53964 1.92567 8.24284 1.92567C6.82424 1.92567 5.69222 2.34771 4.75365 3.21901C3.78642 4.12435 3.37087 5.21348 3.53566 6.41833C3.69328 7.50065 4.20914 8.16093 5.28384 8.65785C5.61341 8.81441 5.91433 8.93694 5.94299 8.93694C5.97164 8.93694 5.87134 8.79399 5.70655 8.62381C5.08323 7.94991 5.18353 6.8744 5.93582 6.32984C6.38719 6.0031 6.68811 5.92141 7.4189 5.92141C8.42196 5.92822 9.51815 6.17327 12.2192 6.99693C14.1394 7.58233 15.5866 7.91588 16.3962 7.96353L17.0912 8.00437V9.48831V10.9722L15.8947 11.9661C15.2284 12.5174 14.6839 12.9871 14.6767 13.0076C14.6695 13.0348 15.2069 13.5113 15.8732 14.0763L17.084 15.0973L17.0912 17.2552C17.0912 19.7397 17.1843 19.4606 16.2529 19.6853C15.2929 19.9167 14.0892 20.0052 13.0647 19.9099C11.5601 19.7738 10.4352 19.379 9.43934 18.637C7.76997 17.3981 6.94604 15.2403 7.1968 12.7557C7.26845 12.0546 7.49055 10.9518 7.56936 10.8838C7.61235 10.8497 9.56114 10.0261 9.60413 10.0261C9.62562 10.0261 9.63995 11.9729 9.63995 14.3485C9.63995 16.7242 9.65428 18.671 9.67577 18.671C9.69727 18.671 10.6287 18.2898 11.7392 17.8201L13.7596 16.9761L13.7811 12.5379C13.7955 8.9982 13.7811 8.11328 13.7095 8.14051C13.6593 8.15413 12.3052 8.73273 10.6932 9.41343C9.08827 10.1009 7.75564 10.6387 7.72699 10.6183C7.6625 10.5502 7.96342 9.91035 8.32882 9.35217C8.89482 8.49448 9.65428 7.80016 10.6932 7.19433C11.0944 6.95608 11.1015 6.94928 10.8436 6.99012C10.3421 7.0718 9.23873 7.453 8.42196 7.82058C6.8529 8.53532 5.51311 9.52915 4.61752 10.6591C4.10167 11.299 3.47834 12.4902 3.27057 13.2186C2.69739 15.1994 3.04846 17.5547 4.19481 19.4198C6.27972 22.8165 10.9439 24.5387 15.343 23.5381C18.6244 22.7961 20.8097 20.4409 21.4186 16.9829C21.5404 16.3226 21.6408 15.1314 21.5834 15.1314C21.5691 15.1314 21.3828 15.4513 21.1822 15.8393C20.4228 17.3164 19.2764 18.4396 17.8292 19.1407C17.5856 19.2564 17.3491 19.3517 17.3061 19.3517C17.256 19.3517 17.2345 18.637 17.2345 17.2211L17.2417 15.0973L18.4525 14.0763C19.1188 13.5113 19.6633 13.0416 19.6633 13.0212C19.6633 13.0007 19.1188 12.5311 18.4525 11.9729L17.2345 10.9586V9.4815V8.01118L17.7647 7.92269C19.9212 7.58233 21.3828 5.63552 20.9529 3.68189C20.6879 2.48385 19.6275 1.50364 18.2017 1.14286C17.693 1.01353 16.6685 0.959071 16.2816 1.03395Z" fill="#22272F"/>
</svg>
