<svg width="420" height="57" viewBox="0 0 420 57" fill="none" xmlns="http://www.w3.org/2000/svg">
<path d="M26.5828 0.893665C28.8161 2.45731 27.8111 5.02616 24.9078 5.02616C24.0703 5.02616 21.0552 4.30018 18.2077 3.40667C15.3602 2.45731 12.066 1.5638 10.8935 1.34042C7.99016 0.837821 4.4168 2.28978 2.85346 4.63525C1.17845 7.03656 1.12262 10.6106 2.68596 12.0067C3.7468 13.0119 3.80263 12.9561 3.80263 11.7833C3.80263 7.76254 5.70098 7.53916 16.5327 10.3314C26.1361 12.8444 28.2578 12.621 30.7703 8.93528C31.8311 7.42747 31.9986 4.41187 31.1611 2.73653C30.4911 1.5638 27.8111 0.000153198 26.3036 0.000153198C25.4661 0.000153198 25.5219 0.111842 26.5828 0.893665Z" fill="black"/>
<path d="M320.267 0.614381C321.607 1.34036 321.886 3.29493 320.825 4.35598C319.765 5.41702 317.085 5.1378 311.725 3.29493C303.629 0.502692 299.05 0.94945 296.538 4.6352C294.807 7.14821 294.863 10.108 296.65 12.1184L298.045 13.682L297.71 12.1184C297.208 9.94044 298.715 8.37679 301.34 8.37679C302.456 8.37679 305.527 8.99108 308.095 9.71706C316.247 12.0625 318.815 12.3976 321.216 11.6158C327.246 9.60538 327.023 1.22867 320.937 0.279313C319.206 8.99695e-05 319.095 0.0559347 320.267 0.614381Z" fill="black"/>
<path d="M38.0288 4.07672C34.4555 6.58973 34.1205 6.98064 34.958 7.59493C35.7955 8.20922 35.9072 9.82871 36.0747 22.673C36.2422 35.8523 36.1305 37.1925 35.293 37.8068C34.3438 38.477 34.3996 38.5886 35.6838 39.7614C36.4097 40.4315 37.6938 41.5484 38.5313 42.3302L40.0389 43.6705L42.4955 41.8835L44.9522 40.0964L43.6681 38.812L42.328 37.4718V19.4898C42.328 9.60533 42.2722 1.45203 42.2164 1.34034C42.1047 1.2845 40.2622 2.51308 38.0288 4.07672Z" fill="black"/>
<path d="M264.658 3.96498C261.085 6.47799 260.75 6.8689 261.475 7.59488C262.201 8.32086 262.313 10.8339 262.313 23.1755C262.313 36.3549 262.201 37.9185 261.364 38.1977C260.582 38.5328 260.638 38.7003 261.81 39.4821C262.536 39.9848 263.932 41.1016 264.825 41.9393L266.5 43.503L269.18 41.8276L271.805 40.0964L270.409 38.9795L269.013 37.9185L268.901 19.5456L268.734 1.17275L264.658 3.96498Z" fill="black"/>
<path d="M92.8572 2.17807C90.1771 3.01573 88.1113 5.75211 88.1113 8.43264V9.60537L89.1163 8.3768C89.898 7.3716 90.5121 7.20407 91.573 7.42744C93.0247 7.81835 94.7555 10.4989 104.359 27.3639C105.978 30.2678 107.765 33.3392 108.211 34.1211C108.658 34.9029 110.054 37.36 111.282 39.538C112.455 41.7718 113.683 43.5588 113.907 43.5588C114.521 43.5588 114.465 29.7652 113.907 29.486C113.627 29.3743 111.45 25.9119 109.049 21.7795C99.7806 5.80795 98.5522 3.8534 97.4355 3.12742C95.7605 2.06638 94.1972 1.73131 92.8572 2.17807Z" fill="black"/>
<path d="M119.769 3.12736C118.597 4.74686 116.978 4.80271 114.354 3.46243L112.455 2.40138L110.334 4.85855C109.161 6.19882 108.212 7.48325 108.212 7.70663C108.212 8.37677 110.557 9.6612 112.567 10.108C116.475 10.9456 120.495 8.37677 121.333 4.41179C121.835 2.12216 120.998 1.45202 119.769 3.12736Z" fill="black"/>
<path d="M189.338 2.62473C187.942 2.90396 184.704 5.86372 184.704 6.86892C184.704 7.31567 184.927 7.25983 185.374 6.81307C186.379 5.80787 188.5 6.03125 189.17 7.20398C189.449 7.81827 189.729 10.9456 189.729 14.1845C189.729 20.0482 189.729 20.1041 188.389 20.1041C187.607 20.1041 186.267 20.7742 185.318 21.556C183.364 23.1755 183.029 25.7444 184.48 27.8106C185.485 29.2626 186.49 29.4859 185.988 28.1457C185.597 27.0846 187.16 25.6885 188.724 25.6885C189.617 25.6885 189.729 26.3587 189.729 33.4509V41.2691L191.515 40.7107C192.52 40.4315 194.195 40.3756 195.145 40.5432L196.987 40.8782V23.5106V6.14294L195.48 4.52345C193.916 2.84811 191.627 2.17798 189.338 2.62473Z" fill="black"/>
<path d="M206.032 4.57924L203.185 6.86887L205.083 8.32083L206.982 9.77279L207.037 24.2924C207.037 36.5782 206.926 39.0354 206.144 40.0964C205.697 40.7666 204.804 41.325 204.19 41.325C202.18 41.325 203.631 42.3302 206.2 42.7211C207.707 42.9445 209.55 42.8328 210.722 42.4419C214.072 41.325 214.296 40.1523 214.296 22.3937V6.81302L211.56 4.52339L208.824 2.23376L206.032 4.57924Z" fill="black"/>
<path d="M330.596 6.08712C329.591 6.92479 328.754 7.87415 328.754 8.15337C328.754 8.48844 329.647 9.54949 330.652 10.5547L332.606 12.4534L334.561 10.8339C335.621 9.9404 336.515 8.99104 336.515 8.76766C336.571 8.04168 333.556 4.46762 332.941 4.46762C332.662 4.52347 331.546 5.1936 330.596 6.08712Z" fill="black"/>
<path d="M140.54 10.8898C138.586 11.9508 136.967 15.0781 137.469 16.9768C137.637 17.7587 138.697 19.434 139.758 20.6067L141.712 22.7288V30.9379C141.712 35.4055 141.88 39.0912 142.159 39.0912C142.382 39.0912 143.778 40.0964 145.286 41.325L147.966 43.5588L150.422 41.8276C151.763 40.9341 152.879 39.9289 152.879 39.6497C152.879 39.3704 151.874 38.4769 150.646 37.5834L148.412 36.0198V28.4808C148.412 24.3483 148.245 20.3833 148.077 19.7132C147.854 18.9872 146.514 17.5911 145.007 16.4742C142.159 14.408 141.098 12.2859 142.271 10.8898C143.108 9.82876 142.438 9.82876 140.54 10.8898Z" fill="black"/>
<path d="M303.629 12.3976C296.203 16.0833 292.183 24.5158 294.361 31.9432C298.213 45.2341 315.745 48.2498 322.724 36.8575C324.288 34.2886 325.628 29.5977 324.846 29.5977C324.567 29.5977 324.232 30.0444 324.064 30.6029C323.562 32.0548 319.988 35.7406 318.983 35.7406C318.537 35.7406 318.146 35.964 318.146 36.2432C318.146 37.3042 312.73 38.086 309.659 37.4718C303.294 36.1315 300.335 31.8315 300.279 23.9574C300.279 21.3327 300.447 18.9872 300.67 18.7638C300.893 18.5963 301.117 18.0379 301.172 17.647C301.34 16.3625 303.127 14.0171 304.969 12.5651C307.091 10.8339 306.812 10.8339 303.629 12.3976Z" fill="black"/>
<path d="M8.2135 13.2912C-0.831568 19.0431 -2.67408 30.0445 4.02597 38.2536C9.60935 45.0666 21.1111 45.7926 26.9178 39.7055C28.8162 37.6951 31.1612 32.8367 31.1612 30.938V29.3185L30.1003 31.0497C28.537 33.6185 24.517 36.8016 22.0044 37.4718C18.9894 38.3094 14.6902 37.6393 11.8427 36.0198C7.376 33.3951 5.19848 26.7496 6.59433 19.9925C7.2085 17.2561 7.82267 16.0834 9.66518 14.1288C12.3452 11.3366 11.7869 11.0574 8.2135 13.2912Z" fill="black"/>
<path d="M14.9694 14.9665L11.8985 16.4743V24.46C11.8985 28.8159 11.9543 32.3899 12.066 32.3899C12.1218 32.3899 13.6852 31.6081 15.5277 30.7146L18.8777 29.0392V21.221C18.8777 16.921 18.7102 13.4028 18.4869 13.4028C18.2077 13.4587 16.6444 14.1288 14.9694 14.9665Z" fill="black"/>
<path d="M308.823 14.7988L305.864 16.1391V24.2924V32.3899L309.214 30.7146L312.564 29.0392V21.221C312.564 16.9209 312.396 13.4027 312.173 13.4586C311.894 13.4586 310.386 14.0729 308.823 14.7988Z" fill="black"/>
<path d="M47.8553 16.3626C47.4086 16.7535 46.2919 17.5912 45.4544 18.2613L43.8352 19.5458L45.3428 20.7185C48.3019 23.064 48.2461 22.6731 48.1344 33.3394C48.0228 44.62 47.5203 46.6862 44.4494 48.5849L42.6069 49.7018H44.5611C47.7994 49.7018 51.317 47.5797 52.9362 44.6758C54.2762 42.2745 54.332 41.6043 54.6112 31.1056C54.7787 25.0744 54.7228 20.1042 54.4437 20.1042C54.2203 20.1042 52.9362 19.099 51.5961 17.8704C48.8603 15.3574 49.0836 15.4133 47.8553 16.3626Z" fill="black"/>
<path d="M66.0572 18.8755L60.4738 22.1145L60.3621 29.8769L60.3063 37.6951L64.103 40.3198C66.2247 41.8276 68.2347 43.0003 68.5697 43.0003C68.9047 43.0003 70.1331 42.2185 71.3056 41.2133L73.4273 39.4263L70.1889 37.025L66.8947 34.6237V26.6937V18.708L69.4072 22.5612C70.8031 24.6833 71.9197 26.6379 71.9197 26.8613C71.9197 27.0847 71.4731 27.5873 70.9706 27.8665C70.4122 28.2015 70.1889 28.4808 70.4122 28.4808C71.0822 28.4808 76.9448 24.0132 76.9448 23.4548C76.9448 22.7846 72.3664 15.6365 71.9756 15.6924C71.8081 15.6924 69.128 17.1443 66.0572 18.8755Z" fill="black"/>
<path d="M129.764 16.4742C128.87 16.9768 126.246 18.3729 124.013 19.6573L119.937 22.0028V29.821L119.993 37.6951L123.79 40.4874C125.911 41.9952 127.754 43.2796 127.921 43.2796C128.089 43.2796 129.261 42.4419 130.49 41.4367L132.835 39.538L129.875 37.2484C128.256 35.9639 126.749 34.6795 126.581 34.4561C126.023 33.6743 126.023 19.5456 126.525 19.5456C126.805 19.5456 128.089 21.1093 129.317 23.008L131.606 26.5262L130.378 27.8665C129.373 28.9834 129.596 28.9275 131.662 27.4756C133.058 26.4704 134.789 25.1859 135.515 24.6275L136.855 23.5664L134.398 19.6015C133.058 17.4235 131.83 15.6365 131.662 15.6365C131.495 15.6365 130.657 16.0274 129.764 16.4742Z" fill="black"/>
<path d="M154.275 17.8703C152.209 19.9366 152.153 20.1041 153.047 21.1093C153.828 22.0028 153.996 23.5106 153.996 30.8821V39.6497L156.955 41.6043L159.97 43.6147L166.168 39.9289L172.421 36.2432V28.2016C172.421 23.6782 172.644 20.0483 172.979 19.8249C173.258 19.6573 172.533 18.5963 171.304 17.5353L169.127 15.5248L166.558 17.5911C163.878 19.8249 163.599 20.3833 164.883 20.8859C165.553 21.1093 165.721 22.7288 165.721 30.4354C165.721 35.5172 165.609 39.6497 165.442 39.6497C165.33 39.6497 164.046 38.8679 162.65 37.8627L160.137 36.0757V28.9834C160.137 23.2872 160.305 21.7794 160.975 21.221C161.757 20.5509 161.589 20.1599 159.467 18.0379C158.183 16.7534 156.955 15.6365 156.787 15.6365C156.62 15.6365 155.503 16.6417 154.275 17.8703Z" fill="black"/>
<path d="M225.463 18.6521L220.159 21.6118L219.88 29.7652L219.601 37.9743L223.007 40.4873C224.905 41.8835 226.803 43.0003 227.194 43.0003C227.641 43.0003 230.321 41.4925 233.168 39.6497L238.305 36.3548V28.5924V20.7742L235.234 18.4845C233.559 17.2001 231.828 16.0274 231.493 15.9157C231.103 15.804 228.367 17.0326 225.463 18.6521ZM229.372 20.8859L231.884 22.7287L232.052 31.1613C232.108 35.8522 232.052 39.6497 231.828 39.6497C231.661 39.6497 230.265 38.7561 228.758 37.6393L226.022 35.6288V27.308C226.022 22.7287 226.189 18.9871 226.468 19.043C226.692 19.043 227.976 19.8807 229.372 20.8859Z" fill="black"/>
<path d="M243.999 17.3677L241.598 19.0988L243.049 20.2157C244.445 21.2768 244.445 21.3885 244.445 29.4301C244.445 36.5224 244.334 37.6392 243.496 38.3094C242.938 38.7003 242.77 39.0912 243.161 39.0912C243.496 39.0912 245.004 40.0964 246.399 41.325L248.968 43.5588L251.48 41.8276L254.049 40.0964L252.597 38.5886C251.145 37.0808 251.145 36.9133 251.145 28.8716C251.145 24.3482 251.369 20.6625 251.648 20.6625C251.927 20.6625 252.429 21.0534 252.82 21.556C253.323 22.1144 254.272 22.3378 255.556 22.2261C257.064 22.1144 257.789 21.6118 258.794 20.1599C260.414 17.7586 260.469 16.1949 259.018 16.5858C258.459 16.7534 257.399 16.53 256.673 16.1949C255.556 15.5806 255.221 15.7482 253.211 17.8144L251.034 20.1599L249.079 17.8703C248.019 16.6417 246.958 15.6365 246.79 15.6365C246.567 15.6923 245.339 16.4741 243.999 17.3677Z" fill="black"/>
<path d="M275.711 18.1494L274.036 20.6065L275.655 21.5C279.396 23.3988 283.026 21.8909 284.645 17.6468C285.147 16.2507 285.147 16.139 284.254 16.474C282.132 17.3675 280.792 17.3675 279.173 16.5299L277.442 15.6364L275.711 18.1494Z" fill="black"/>
<path d="M329.479 17.4236L327.19 19.1547L328.53 20.6067C329.814 22.0028 329.87 22.3937 329.87 29.6535C329.87 35.5172 329.703 37.4159 329.088 37.9185C328.418 38.477 328.753 39.0354 331.043 41.1016L333.723 43.6705L336.514 41.8835L339.306 40.0964L337.631 38.7003L335.956 37.3042L336.068 28.7042L336.123 20.1041L334.169 17.8703C333.164 16.6417 332.159 15.6365 332.048 15.6924C331.936 15.6924 330.763 16.4742 329.479 17.4236Z" fill="black"/>
<path d="M343.382 17.3677L341.037 19.0988L342.433 20.2157C343.829 21.2768 343.829 21.3885 343.829 29.6535C343.829 34.847 343.606 37.9743 343.271 37.9743C341.987 37.9743 342.88 39.7055 345.057 41.5484L347.402 43.5588L349.803 41.2133C352.037 39.0354 352.148 38.812 351.255 37.8626C350.473 37.025 350.362 35.573 350.473 28.7041L350.585 20.6066L348.519 18.2612C347.347 16.9767 346.286 15.8599 346.062 15.7482C345.895 15.6923 344.667 16.4183 343.382 17.3677Z" fill="black"/>
<path d="M355.5 16.3625C355.053 16.7534 353.936 17.5911 353.043 18.3171L351.424 19.6015L352.764 20.495C356.058 22.7846 356.114 23.008 356.114 30.0444C356.114 34.9587 355.891 36.9133 355.276 37.751C354.16 39.2588 354.16 39.3146 356.84 41.4926L359.296 43.503L361.753 41.325C364.098 39.2588 364.154 39.1471 363.205 38.1419C362.423 37.1925 362.256 35.8523 362.256 28.6483V20.2716L359.52 17.982C356.393 15.3573 356.672 15.469 355.5 16.3625Z" fill="black"/>
<path d="M365.885 17.5911L363.652 19.4898L365.773 21.221L367.839 22.9522V29.9327C367.839 34.1769 367.616 37.2484 367.225 37.8627C366.667 38.7562 366.946 39.2588 369.012 41.2133L371.468 43.503L373.423 42.3302C377.052 40.1523 377.163 39.8731 375.433 38.0302L373.869 36.4107L374.093 28.4249L374.26 20.3833L371.58 17.982C370.128 16.6976 368.733 15.6366 368.509 15.6366C368.286 15.6924 367.113 16.5301 365.885 17.5911Z" fill="black"/>
<path d="M385.985 18.8755L380.401 22.1145V29.8769V37.5834L384.254 40.5432C387.157 42.777 388.33 43.3913 389 43.0004C390.507 42.1069 394.415 38.5328 393.466 38.812C392.964 39.0354 391.4 38.1977 389.725 36.8575L386.822 34.512V27.0288C386.822 22.8963 386.99 19.5456 387.269 19.5456C387.492 19.5456 388.665 21.221 389.837 23.2314C391.959 26.8054 392.015 26.973 391.01 27.699C390.451 28.1457 390.116 28.4808 390.395 28.4808C391.065 28.4808 396.872 24.0132 396.872 23.4548C396.872 22.7846 392.294 15.6365 391.903 15.6365C391.735 15.6365 389.055 17.0885 385.985 18.8755Z" fill="black"/>
<path d="M405.413 18.2054L400.779 20.7742V25.1301C400.779 29.4301 400.779 29.486 402.733 30.9379L404.632 32.3899L407.144 30.6587C409.601 28.9275 409.601 28.9275 411.052 29.9327C412.337 30.9379 412.448 31.3288 412.504 35.4055V39.7614L410.717 38.0302C409.712 37.025 408.317 36.1315 407.591 35.9081C405.748 35.4613 401.226 36.1873 400.667 37.025C399.662 38.5886 399.551 41.325 400.444 42.7211C401.449 44.2289 402.622 44.6198 402.119 43.2796C401.17 40.8783 405.134 39.9289 407.702 41.9393L409.154 43.112L414.179 39.9289L419.204 36.7458V32.725V28.7041L416.971 27.0288C415.743 26.1353 414.738 25.1859 414.738 24.9067C414.738 24.6833 413.733 25.3535 412.504 26.4704C409.936 28.76 409.824 28.8158 408.149 27.5873C407.088 26.8613 406.921 26.247 406.921 22.4496V18.1495L408.372 19.7132C410.271 21.7794 412.225 22.5054 414.905 22.0028C416.692 21.7236 417.194 21.3327 417.864 19.769C418.311 18.7638 418.646 17.3677 418.646 16.6976C418.646 15.5248 418.59 15.5248 417.641 16.3625C416.357 17.5352 413.733 17.5352 412.281 16.4742C410.773 15.3015 410.55 15.3573 405.413 18.2054Z" fill="black"/>
<path d="M91.4613 17.8704C87.6088 18.8198 86.2688 23.064 88.9488 26.0796C90.1772 27.5315 90.2888 27.5315 90.3447 26.4705C90.3447 24.9627 91.4055 24.0133 92.9689 24.0133C94.1414 24.0133 94.253 23.7899 94.253 20.6626C94.253 18.8198 94.0855 17.312 93.8622 17.3678C93.583 17.4237 92.5222 17.647 91.4613 17.8704Z" fill="black"/>
<path d="M318.202 18.2053C318.202 18.8196 318.369 18.9872 318.537 18.5404C318.704 18.1495 318.648 17.6469 318.481 17.4793C318.313 17.256 318.146 17.591 318.202 18.2053Z" fill="black"/>
<path d="M316.752 21.2767L315.077 22.8962L316.808 24.5157L318.483 26.0793L320.325 24.4598C321.33 23.5663 322.056 22.7845 321.944 22.7286C321.833 22.6728 320.995 21.9468 320.102 21.165L318.427 19.6572L316.752 21.2767Z" fill="black"/>
<path d="M22.7861 21.5001L21.5019 22.8963L22.7861 24.2924C24.4611 26.0235 25.0753 26.0235 26.7503 24.2365L28.0903 22.7846L26.527 21.4443C24.5728 19.769 24.4053 19.769 22.7861 21.5001Z" fill="black"/>
<path d="M271.415 24.5717L269.573 27.3081L274.933 35.4055L280.293 43.503L282.917 41.7718C284.313 40.8224 285.541 39.9848 285.653 39.9289C285.708 39.8731 283.252 36.0757 280.125 31.4964C276.998 26.9172 274.374 22.8405 274.207 22.4496C273.76 21.3327 273.313 21.6678 271.415 24.5717Z" fill="black"/>
<path d="M92.02 34.5678C87.7766 35.4055 85.3199 38.086 85.3199 41.8276C85.3199 44.3965 87.3299 47.077 89.7866 47.803C91.1266 48.1381 91.1266 48.1381 90.2333 47.077C86.9391 43.4471 91.685 39.4263 95.5933 42.4978C96.4308 43.1679 97.2683 43.503 97.4917 43.2237C97.715 42.9445 98.72 41.7718 99.7808 40.6549C101.958 38.2536 101.735 37.5276 98.2175 35.7964C95.4258 34.3445 94.2533 34.1211 92.02 34.5678Z" fill="black"/>
<path d="M395.924 37.1925L394.361 38.5886L396.203 37.36C397.152 36.634 397.99 36.0197 397.99 35.908C397.99 35.4613 397.376 35.8522 395.924 37.1925Z" fill="black"/>
<path d="M187.16 42.3304C184.536 44.3966 183.977 47.7473 185.764 50.4278C187.998 53.8902 191.124 54.6161 198.103 53.3317C206.814 51.7122 208.768 51.6564 209.605 52.7733C210.052 53.3317 210.219 54.3928 210.052 55.1187C209.605 56.9058 210.666 56.7941 212.676 54.7837C215.021 52.4382 214.965 49.0875 212.564 46.8538C211.615 45.9602 210.164 45.1784 209.326 45.1226C206.423 44.955 202.235 45.346 198.829 46.1278C194.363 47.133 189.952 47.2447 188.891 46.3512C187.886 45.5135 187.774 42.9446 188.723 41.9953C189.728 40.9901 188.5 41.2135 187.16 42.3304Z" fill="black"/>
</svg>
